{"title":"Thalia - Mujer Latina (h264/mp4)","uid":7484713,"size":93526336,"categoryP":"video","categoryS":"music_videos","magnet":"?xt=urn:btih:0f509cd886bc1ac0336053011e1deb0da64be197&amp;dn=Thalia+-+Mujer+Latina+%28h264%2Fmp4%29&amp;tr=udp%3A%2F%2Ftracker.openbittorrent.com%3A80&amp;tr=udp%3A%2F%2Fopen.demonii.com%3A1337&amp;tr=udp%3A%2F%2Ftracker.coppersurfer.tk%3A6969&amp;tr=udp%3A%2F%2Fexodus.desync.com%3A6969","seeders":1,"leechers":0,"uploader":"MusicVideos-HQ","files":1,"time":1343543939,"description":"General\n\nFormat                         : MPEG-4\nFormat profile                 : Base Media\nCodec ID                       : isom\nFile size                      : 89.2 MiB\nDuration                       : 3mn 37s\nOverall bit rate mode          : Variable\nOverall bit rate               : 3 437 Kbps\nEncoded date                   : UTC 2012-07-28 06:12:09\nTagged date                    : UTC 2012-07-28 06:12:09\n\nVideo\nID                             : 1\nFormat                         : AVC\nFormat/Info                    : Advanced Video Codec\nFormat profile                 : &lt;a class=&quot;__cf_email__&quot; href=&quot;/cdn-cgi/l/email-protection&quot; data-cfemail=&quot;1b53727c735b5728352b&quot;&gt;[email&amp;#160;protected]&lt;/a&gt;&lt;script cf-hash='f9e31' type=&quot;text/javascript&quot;&gt;\n/* &lt;![CDATA[ */!function(){try{var t=&quot;currentScript&quot;in document?document.currentScript:function(){for(var t=document.getElementsByTagName(&quot;script&quot;),e=t.length;e--;)if(t[e].getAttribute(&quot;cf-hash&quot;))return t[e]}();if(t&amp;&amp;t.previousSibling){var e,r,n,i,c=t.previousSibling,a=c.getAttribute(&quot;data-cfemail&quot;);if(a){for(e=&quot;&quot;,r=parseInt(a.substr(0,2),16),n=2;a.length-n;n+=2)i=parseInt(a.substr(n,2),16)^r,e+=String.fromCharCode(i);e=document.createTextNode(e),c.parentNode.replaceChild(e,c)}}}catch(u){}}();/* ]]&gt; */&lt;/script&gt;\nFormat settings, CABAC         : Yes\nFormat settings, ReFrames      : 2 frames\nCodec ID                       : avc1\nCodec ID/Info                  : Advanced Video Coding\nDuration                       : 3mn 37s\nBit rate                       : 3 243 Kbps\nMaximum bit rate               : 6 616 Kbps\nWidth                          : 720 pixels\nHeight                         : 480 pixels\nDisplay aspect ratio           : 4:3\nOriginal display aspect ratio  : 4:3\nFrame rate mode                : Constant\nFrame rate                     : 29.970 fps\nStandard                       : NTSC\nColor space                    : YUV\nChroma subsampling             : 4:2:0\nBit depth                      : 8 bits\nScan type                      : Progressive\nBits/(Pixel*Frame)             : 0.313\nStream size                    : 84.0 MiB (94%)\n\n\nAudio\nID                             : 2\nFormat                         : AAC\nFormat/Info                    : Advanced Audio Codec\nFormat profile                 : LC\nCodec ID                       : 40\nDuration                       : 3mn 37s\nBit rate mode                  : Variable\nBit rate                       : 192 Kbps\nMaximum bit rate               : 254 Kbps\nChannel(s)                     : 2 channels\nChannel positions              : Front: L R\nSampling rate                  : 48.0 KHz\nCompression mode               : Lossy\nDelay relative to video        : -667ms\nStream size                    : 5.00 MiB (6%)\n","torrent":{"xt":"urn:btih:0f509cd886bc1ac0336053011e1deb0da64be197","amp;dn":"Thalia+-+Mujer+Latina+%28h264%2Fmp4%29","amp;tr":["udp%3A%2F%2Ftracker.openbittorrent.com%3A80","udp%3A%2F%2Fopen.demonii.com%3A1337","udp%3A%2F%2Ftracker.coppersurfer.tk%3A6969","udp%3A%2F%2Fexodus.desync.com%3A6969"],"infoHash":"0f509cd886bc1ac0336053011e1deb0da64be197","infoHashBuffer":{"type":"Buffer","data":[15,80,156,216,134,188,26,192,51,96,83,1,30,29,235,13,166,75,225,151]},"announce":[],"urlList":[]}}